<svg width="295" height="92" viewBox="0 0 295 92" version="1.1" xmlns="http://www.w3.org/2000/svg" xmlns:xlink="http://www.w3.org/1999/xlink">
<g id="Canvas" fill="none">
<g id="Logo">
<g id="Vector">
<path d="M 21.7577 11.1041L 0 92L 52.7067 92L 52.7067 0L 36.2429 0C 29.4591 0 23.5197 4.55304 21.7577 11.1041Z" transform="translate(242.293 0)" fill="url(#paint0_linear)"/>
</g>
<g id="Vector_2">
<path fill-rule="evenodd" clip-rule="evenodd" d="M 0.652249 91.5L 22.2405 11.2339C 23.9438 4.90127 29.6852 0.5 36.2429 0.5L 235.944 0.5C 242.501 0.5 248.243 4.90128 249.946 11.2339L 271.534 91.5L 0.652249 91.5Z" fill="#333333"/>
<path fill-rule="evenodd" clip-rule="evenodd" d="M 0.652249 91.5L 22.2405 11.2339C 23.9438 4.90127 29.6852 0.5 36.2429 0.5L 235.944 0.5C 242.501 0.5 248.243 4.90128 249.946 11.2339L 271.534 91.5L 0.652249 91.5Z" stroke-miterlimit="8" stroke="#333333"/>
</g>
<g id="tabs">
<path d="M 12.0234 19.2227L 12.0234 28.9609L 19.8984 28.9609L 19.8984 32.4062L 12.0234 32.4062L 12.0234 57.7539C 12.0234 59.8633 12.3984 61.4336 13.1484 62.4648C 13.9219 63.4961 15.1992 64.0117 16.9805 64.0117C 17.6836 64.0117 18.8203 63.8945 20.3906 63.6602L 20.5664 67.1055C 19.4648 67.5039 17.9648 67.7031 16.0664 67.7031C 13.1836 67.7031 11.0859 66.8711 9.77344 65.207C 8.46094 63.5195 7.80469 61.0469 7.80469 57.7891L 7.80469 32.4062L 0.808594 32.4062L 0.808594 28.9609L 7.80469 28.9609L 7.80469 19.2227L 12.0234 19.2227ZM 52.6289 67C 52.207 65.8047 51.9375 64.0352 51.8203 61.6914C 50.3438 63.6133 48.457 65.1016 46.1602 66.1562C 43.8867 67.1875 41.4727 67.7031 38.918 67.7031C 35.2617 67.7031 32.2969 66.6836 30.0234 64.6445C 27.7734 62.6055 26.6484 60.0273 26.6484 56.9102C 26.6484 53.207 28.1836 50.2773 31.2539 48.1211C 34.3477 45.9648 38.6484 44.8867 44.1562 44.8867L 51.7852 44.8867L 51.7852 40.5625C 51.7852 37.8438 50.9414 35.7109 49.2539 34.1641C 47.5898 32.5938 45.1523 31.8086 41.9414 31.8086C 39.0117 31.8086 36.5859 32.5586 34.6641 34.0586C 32.7422 35.5586 31.7812 37.3633 31.7812 39.4727L 27.5625 39.4375C 27.5625 36.4141 28.9688 33.8008 31.7812 31.5977C 34.5938 29.3711 38.0508 28.2578 42.1523 28.2578C 46.3945 28.2578 49.7344 29.3242 52.1719 31.457C 54.6328 33.5664 55.8984 36.5195 55.9688 40.3164L 55.9688 58.3164C 55.9688 61.9961 56.3555 64.75 57.1289 66.5781L 57.1289 67L 52.6289 67ZM 39.4102 63.9766C 42.2227 63.9766 44.7305 63.2969 46.9336 61.9375C 49.1602 60.5781 50.7773 58.7617 51.7852 56.4883L 51.7852 48.1211L 44.2617 48.1211C 40.0664 48.168 36.7852 48.9414 34.418 50.4414C 32.0508 51.918 30.8672 53.957 30.8672 56.5586C 30.8672 58.6914 31.6523 60.4609 33.2227 61.8672C 34.8164 63.2734 36.8789 63.9766 39.4102 63.9766ZM 97.8398 48.3672C 97.8398 54.2969 96.5273 59.0078 93.9023 62.5C 91.2773 65.9688 87.75 67.7031 83.3203 67.7031C 78.0234 67.7031 74.0156 65.7344 71.2969 61.7969L 71.1211 67L 67.1836 67L 67.1836 13L 71.3672 13L 71.3672 34.4805C 74.0391 30.332 78 28.2578 83.25 28.2578C 87.75 28.2578 91.3008 29.9805 93.9023 33.4258C 96.5273 36.8477 97.8398 41.6172 97.8398 47.7344L 97.8398 48.3672ZM 93.6211 47.6289C 93.6211 42.6133 92.6484 38.7461 90.7031 36.0273C 88.7578 33.2852 86.0156 31.9141 82.4766 31.9141C 79.7812 31.9141 77.4961 32.582 75.6211 33.918C 73.7461 35.2305 72.3281 37.1641 71.3672 39.7188L 71.3672 56.875C 73.4766 61.6562 77.2031 64.0469 82.5469 64.0469C 86.0156 64.0469 88.7227 62.6758 90.668 59.9336C 92.6367 57.1914 93.6211 53.0898 93.6211 47.6289ZM 129.938 57.332C 129.938 55.2461 129.094 53.5703 127.406 52.3047C 125.742 51.0391 123.223 50.0547 119.848 49.3516C 116.473 48.625 113.848 47.8047 111.973 46.8906C 110.121 45.9531 108.738 44.8164 107.824 43.4805C 106.934 42.1445 106.488 40.5273 106.488 38.6289C 106.488 35.6289 107.742 33.1562 110.25 31.2109C 112.758 29.2422 115.969 28.2578 119.883 28.2578C 124.125 28.2578 127.523 29.3125 130.078 31.4219C 132.656 33.5078 133.945 36.2383 133.945 39.6133L 129.727 39.6133C 129.727 37.3867 128.789 35.5352 126.914 34.0586C 125.062 32.582 122.719 31.8438 119.883 31.8438C 117.117 31.8438 114.891 32.4648 113.203 33.707C 111.539 34.9258 110.707 36.5195 110.707 38.4883C 110.707 40.3867 111.398 41.8633 112.781 42.918C 114.188 43.9492 116.73 44.8984 120.41 45.7656C 124.113 46.6328 126.879 47.5586 128.707 48.543C 130.559 49.5273 131.93 50.7109 132.82 52.0938C 133.711 53.4766 134.156 55.1523 134.156 57.1211C 134.156 60.332 132.855 62.8984 130.254 64.8203C 127.676 66.7422 124.301 67.7031 120.129 67.7031C 115.699 67.7031 112.102 66.6367 109.336 64.5039C 106.594 62.3477 105.223 59.6289 105.223 56.3477L 109.441 56.3477C 109.605 58.8086 110.637 60.7305 112.535 62.1133C 114.457 63.4727 116.988 64.1523 120.129 64.1523C 123.059 64.1523 125.426 63.5078 127.23 62.2188C 129.035 60.9297 129.938 59.3008 129.938 57.332Z" transform="translate(31 4)" fill="#F2F2F2"/>
</g>
</g>
</g>
<defs>

<linearGradient id="paint0_linear" x2="1" gradientUnits="userSpaceOnUse" gradientTransform="matrix(141.5 0 -9.27942e-07 81.0651 -0.293334 5.46743)">
<stop offset="0.121547" stop-color="#757575"/>
<stop offset="0.398171" stop-color="white" stop-opacity="0"/>
</linearGradient>

</defs>
</svg>

